<svg width="22" height="21" viewBox="0 0 22 21" fill="none" xmlns="http://www.w3.org/2000/svg">
<path fill-rule="evenodd" clip-rule="evenodd" d="M21.633 12.4813V20.3605H17.032V12.9989C17.032 11.1585 16.3994 9.89329 14.7315 9.89329C13.4663 9.89329 12.7186 10.756 12.3735 11.5611C12.2585 11.8487 12.201 12.2513 12.201 12.6539V20.3605H7.60001C7.60001 20.3605 7.65752 7.88037 7.60001 6.61511H12.201V8.57052C12.201 8.57052 12.201 8.62801 12.1435 8.62801H12.201V8.57052C12.8336 7.65032 13.8689 6.27003 16.3419 6.27003C19.3325 6.27003 21.633 8.28296 21.633 12.4813ZM2.88347 0.0012207C1.33063 0.0012207 0.29541 1.03644 0.29541 2.35921C0.29541 3.68198 1.27312 4.71721 2.82595 4.71721H2.88347C4.49381 4.71721 5.47152 3.68199 5.47152 2.35921C5.41401 1.03644 4.4363 0.0012207 2.88347 0.0012207ZM0.526056 20.3605H5.06954V6.61513H0.526056V20.3605Z" fill="#535353"/>
</svg>
