<svg width="22" height="19" viewBox="0 0 22 19" fill="none" xmlns="http://www.w3.org/2000/svg">
<path fill-rule="evenodd" clip-rule="evenodd" d="M21.6159 2.82596C20.8126 3.1774 20.0093 3.42842 19.1056 3.52883C20.0093 2.97658 20.7122 2.1231 21.0134 1.11901C20.1599 1.62106 19.2061 1.97249 18.2522 2.1733C17.4489 1.31982 16.2942 0.767578 15.039 0.767578C12.6292 0.767578 10.6712 2.72555 10.6712 5.13537C10.6712 5.48681 10.7214 5.83823 10.7716 6.13947C7.10668 5.93865 3.89356 4.23169 1.73475 1.57085C1.33311 2.22351 1.13229 2.97658 1.13229 3.77985C1.13229 5.28599 1.88536 6.64151 3.09028 7.44478C2.38741 7.44478 1.68455 7.24397 1.08208 6.89253V6.94273C1.08208 9.05133 2.58823 10.8587 4.59643 11.2603C4.24499 11.3607 3.84336 11.4109 3.44171 11.4109C3.14049 11.4109 2.88946 11.3607 2.63844 11.3105C3.19069 13.0677 4.79725 14.3228 6.75524 14.373C5.24909 15.5277 3.39151 16.2306 1.33311 16.2306C0.981677 16.2306 0.630245 16.2306 0.278809 16.1804C2.2368 17.4355 4.49602 18.1383 7.00626 18.1383C15.0893 18.1383 19.4571 11.4611 19.4571 5.68762C19.4571 5.48681 19.4571 5.28599 19.4571 5.13537C20.3106 4.48272 21.0636 3.67944 21.6159 2.82596Z" fill="#535353"/>
</svg>
