<svg width="53" height="53" viewBox="0 0 53 53" fill="none" xmlns="http://www.w3.org/2000/svg">
<path d="M46.9274 36.1279C44.9841 36.1279 44.1228 35.3771 42.9082 34.3171C41.5611 33.1687 39.8828 31.7112 36.7249 31.7112C33.5449 31.7112 31.8886 33.1687 30.5415 34.3171C29.327 35.3771 28.4437 36.1279 26.5003 36.1279C24.5791 36.1279 23.6957 35.3771 22.4811 34.3171C21.1341 33.1687 19.4558 31.7112 16.2978 31.7112C13.1178 31.7112 11.4395 33.1687 10.0924 34.3171C8.87784 35.3771 8.01658 36.1279 6.07324 36.1279C5.16783 36.1279 4.41699 36.8787 4.41699 37.7842C4.41699 38.7117 5.16783 39.4404 6.07324 39.4404C9.25324 39.4404 10.9095 38.005 12.2565 36.8346C13.4711 35.7746 14.3545 35.0237 16.2978 35.0237C18.2412 35.0237 19.1024 35.7746 20.317 36.8346C21.6641 38.005 23.3424 39.4404 26.5003 39.4404C29.6803 39.4404 31.3587 38.005 32.7057 36.8346C33.9203 35.7746 34.7816 35.0237 36.7249 35.0237C38.6462 35.0237 39.5295 35.7746 40.7441 36.8346C42.0912 38.005 43.7695 39.4404 46.9274 39.4404C47.8328 39.4404 48.5837 38.7117 48.5837 37.7842C48.5837 36.8787 47.8328 36.1279 46.9274 36.1279Z" fill="#141416"/>
<path d="M46.9274 27.0306C44.9841 27.0306 44.1228 26.2577 42.9082 25.2198C41.5611 24.0494 39.8828 22.614 36.7249 22.614C33.5449 22.614 31.8886 24.0494 30.5415 25.2198C29.327 26.2577 28.4437 27.0306 26.5003 27.0306C24.5791 27.0306 23.6957 26.2577 22.4811 25.2198C21.1341 24.0494 19.4558 22.614 16.2978 22.614C13.1178 22.614 11.4395 24.0494 10.0924 25.2198C8.87784 26.2577 8.01658 27.0306 6.07324 27.0306C5.16783 27.0306 4.41699 27.7594 4.41699 28.6869C4.41699 29.5923 5.16783 30.3431 6.07324 30.3431C9.25324 30.3431 10.9095 28.8856 12.2565 27.7152C13.4711 26.6773 14.3545 25.9265 16.2978 25.9265C18.2412 25.9265 19.1024 26.6773 20.317 27.7152C21.6641 28.8856 23.3424 30.3431 26.5003 30.3431C29.6803 30.3431 31.3587 28.8856 32.7057 27.7152C33.9203 26.6773 34.7816 25.9265 36.7249 25.9265C38.6462 25.9265 39.5295 26.6773 40.7441 27.7152C42.0912 28.8856 43.7695 30.3431 46.9274 30.3431C47.8328 30.3431 48.5837 29.5923 48.5837 28.6869C48.5837 27.7594 47.8328 27.0306 46.9274 27.0306Z" fill="#141416"/>
<path d="M6.07324 21.2886C9.25324 21.2886 10.9095 19.8311 12.2565 18.6828C13.4711 17.6228 14.3545 16.8719 16.2978 16.8719C18.2412 16.8719 19.1024 17.6228 20.317 18.6828C21.6641 19.8311 23.3424 21.2886 26.5003 21.2886C29.6803 21.2886 31.3587 19.8311 32.7057 18.6828C33.9203 17.6228 34.7816 16.8719 36.7249 16.8719C38.6462 16.8719 39.5295 17.6228 40.7441 18.6828C42.0912 19.8311 43.7695 21.2886 46.9274 21.2886C47.8328 21.2886 48.5837 20.5378 48.5837 19.6324C48.5837 18.7049 47.8328 17.9761 46.9274 17.9761C44.9841 17.9761 44.1228 17.2253 42.9082 16.1653C41.5611 14.9949 39.8828 13.5594 36.7249 13.5594C33.5449 13.5594 31.8886 14.9949 30.5415 16.1653C29.327 17.2253 28.4437 17.9761 26.5003 17.9761C24.5791 17.9761 23.6957 17.2253 22.4811 16.1653C21.1341 14.9949 19.4558 13.5594 16.2978 13.5594C13.1178 13.5594 11.4395 14.9949 10.0924 16.1653C8.87784 17.2253 8.01658 17.9761 6.07324 17.9761C5.16783 17.9761 4.41699 18.7049 4.41699 19.6324C4.41699 20.5378 5.16783 21.2886 6.07324 21.2886Z" fill="#141416"/>
</svg>
