<svg width="27" height="28" viewBox="0 0 27 28" fill="none" xmlns="http://www.w3.org/2000/svg">
<path d="M12.7059 11.2675V13.4078C11.9032 13.2071 11.3682 12.7501 11.3682 12.3376C11.3682 11.914 11.9032 11.457 12.7059 11.2675Z" fill="black"/>
<path d="M15.7156 16.3509C15.7156 16.7634 15.1806 17.2204 14.3779 17.4211V15.2808C15.1806 15.4703 15.7156 15.9273 15.7156 16.3509Z" fill="black"/>
<path d="M21.2224 6.65239C19.1712 4.60124 16.4401 3.47534 13.5417 3.47534C10.6433 3.47534 7.9122 4.60124 5.86105 6.65239C3.79875 8.70354 2.67285 11.4347 2.67285 14.3442C2.67285 15.7711 2.95154 17.1757 3.49777 18.5022C4.044 19.8288 4.84662 21.0104 5.86105 22.0248C6.86433 23.0393 8.05711 23.8308 9.38367 24.377C10.7102 24.9344 12.1037 25.213 13.5417 25.213C14.9797 25.213 16.3732 24.9344 17.6997 24.377C19.0263 23.8308 20.2191 23.0393 21.2224 22.0248C22.2368 21.0104 23.0394 19.8288 23.5856 18.5022C24.1319 17.1757 24.4106 15.7711 24.4106 14.3442C24.4106 11.4347 23.2847 8.70354 21.2224 6.65239ZM14.3778 19.1265V19.3606C14.3778 19.8176 13.9988 20.1967 13.5417 20.1967C13.0847 20.1967 12.7056 19.8176 12.7056 19.3606V19.1153C11.7247 18.9593 10.8551 18.5357 10.2978 17.9003C10.0525 17.6104 10.0302 17.1868 10.2532 16.8747C10.4761 16.5514 10.8774 16.4399 11.2342 16.5737L12.7056 17.1311V15.1022C10.9666 14.8347 9.6958 13.7088 9.6958 12.3376C9.6958 10.9553 10.9666 9.84059 12.7056 9.5619V9.3278C12.7056 8.8596 13.0847 8.49173 13.5417 8.49173C13.9988 8.49173 14.3778 8.8596 14.3778 9.3278V9.5619C15.3588 9.72911 16.2283 10.1527 16.7856 10.777C17.0309 11.0668 17.0532 11.4904 16.8302 11.8137C16.6742 12.0367 16.4178 12.1704 16.1502 12.1704C16.0499 12.1704 15.9496 12.1481 15.8492 12.1147L14.3778 11.5462V13.575C16.1168 13.8426 17.3876 14.9685 17.3876 16.3508C17.3876 17.7331 16.1168 18.8478 14.3778 19.1265Z" fill="black"/>
</svg>
