<svg width="28" height="28" viewBox="0 0 28 28" fill="none" xmlns="http://www.w3.org/2000/svg">
<path d="M21.1018 3.00574H7.34566C4.99353 3.00574 3.07617 4.92311 3.07617 7.27525V21.0313C3.07617 23.3834 4.99353 25.3008 7.34566 25.3008H21.1018C23.1306 25.3008 24.825 23.8739 25.2598 21.9789C25.3267 21.8562 25.3713 21.7225 25.3713 21.5775V7.27525C25.3713 4.92311 23.4539 3.00574 21.1018 3.00574ZM21.9378 15.3015C21.9378 15.7585 21.5588 16.1375 21.1018 16.1375C20.6336 16.1375 20.2657 15.7585 20.2657 15.3015V13.0051C20.2657 12.548 20.6336 12.169 21.1018 12.169C21.5588 12.169 21.9378 12.548 21.9378 13.0051V15.3015ZM6.5096 15.3015V13.0051C6.5096 12.548 6.88862 12.169 7.34566 12.169C7.81386 12.169 8.18173 12.548 8.18173 13.0051V15.3015C8.18173 15.7585 7.81386 16.1375 7.34566 16.1375C6.88862 16.1375 6.5096 15.7585 6.5096 15.3015ZM18.4932 10.7198V17.5867C18.4932 18.0549 18.1253 18.4228 17.6571 18.4228C17.2001 18.4228 16.8211 18.0549 16.8211 17.5867V10.7198C16.8211 10.2516 17.2001 9.88377 17.6571 9.88377C18.1253 9.88377 18.4932 10.2516 18.4932 10.7198ZM15.0598 8.42344V19.8831C15.0598 20.3402 14.6808 20.7192 14.2237 20.7192C13.7667 20.7192 13.3876 20.3402 13.3876 19.8831V8.42344C13.3876 7.96639 13.7667 7.58738 14.2237 7.58738C14.6808 7.58738 15.0598 7.96639 15.0598 8.42344ZM11.6264 10.7198V17.5867C11.6264 18.0549 11.2473 18.4228 10.7903 18.4228C10.3221 18.4228 9.95422 18.0549 9.95422 17.5867V10.7198C9.95422 10.2516 10.3221 9.88377 10.7903 9.88377C11.2473 9.88377 11.6264 10.2516 11.6264 10.7198Z" fill="black"/>
</svg>
