<svg width="85" height="85" viewBox="0 0 85 85" fill="none" xmlns="http://www.w3.org/2000/svg">
<g clip-path="url(#clip0_35_142)">
<path d="M84.9834 20.9628C84.8841 20.0486 84.316 19.2394 83.4669 18.8431L43.6231 0.249392C42.9111 -0.0828052 42.0886 -0.0828052 41.3766 0.249392L1.53282 18.8431C0.683818 19.2394 0.115713 20.0484 0.0162695 20.9628C0.0141113 20.9819 0 21.2363 0 21.2502V66.4064C0 67.4925 0.66124 68.4694 1.66979 68.8726L41.5135 84.8101C41.8301 84.9368 42.1651 85.0002 42.5 85.0002C42.8349 85.0002 43.1699 84.9369 43.4865 84.8101L83.3302 68.8726C84.3388 68.4694 85 67.4925 85 66.4064V21.2502C85 21.2363 84.9856 20.9818 84.9834 20.9628ZM42.5 5.58762L75.6606 21.0626L62.8917 26.1702L29.107 11.8378L42.5 5.58762ZM22.6296 14.8606L55.8902 28.9708L42.5 34.3268L9.33938 21.0626L22.6296 14.8606ZM5.3125 25.1735L39.8438 38.986V78.4205L5.3125 64.608V25.1735ZM45.1562 78.4207V38.986L79.6875 25.1735V64.608L45.1562 78.4207Z" fill="#AD0808"/>
</g>
<defs>
<clipPath id="clip0_35_142">
<rect width="85" height="85" fill="white"/>
</clipPath>
</defs>
</svg>
