<svg width="105" height="105" viewBox="0 0 105 105" fill="none" xmlns="http://www.w3.org/2000/svg">
<g clip-path="url(#clip0_35_146)">
<path d="M52.5 0C25.2994 0 3.28226 22.0127 3.28226 49.2177C3.28226 61.1445 7.57044 72.5735 15.3817 81.5366V101.922C15.3817 104.669 18.7082 106.022 20.6329 104.097L31.1542 93.5753C63.51 109.143 101.718 85.7499 101.718 49.2175C101.718 22.0172 79.705 0 52.5 0V0ZM32.0252 87.1139C30.8283 86.4659 29.3479 86.6816 28.3853 87.6438L21.5338 94.4953V80.3631C21.5338 79.5943 21.2459 78.8534 20.7268 78.2861C13.4449 70.3311 9.4346 60.0077 9.4346 49.2175C9.4346 25.4711 28.7538 6.15193 52.5002 6.15193C76.2466 6.15193 95.5658 25.4711 95.5658 49.2175C95.5656 81.8934 60.4779 102.521 32.0252 87.1139Z" fill="#2C830E"/>
<path d="M52.5 21.7174C42.3174 21.7174 34.0331 30.0017 34.0331 40.1843C34.0331 41.8831 35.4104 43.2605 37.1093 43.2605C38.8081 43.2605 40.1854 41.8831 40.1854 40.1843C40.1854 33.3939 45.7098 27.8695 52.5002 27.8695C59.2905 27.8695 64.8149 33.3939 64.8149 40.1843C64.8149 46.9746 59.2903 52.499 52.5 52.499C50.8011 52.499 49.4238 53.8763 49.4238 55.5752V64.7932C49.4238 66.4921 50.8011 67.8694 52.5 67.8694C54.1988 67.8694 55.5761 66.4921 55.5761 64.7932V58.395C64.2997 56.926 70.9668 49.3191 70.9668 40.1843C70.9668 30.0017 62.6825 21.7174 52.5 21.7174Z" fill="#2C830E"/>
<path d="M52.5 80.1635C54.1933 80.1635 55.5659 78.7908 55.5659 77.0975C55.5659 75.4043 54.1933 74.0316 52.5 74.0316C50.8067 74.0316 49.4341 75.4043 49.4341 77.0975C49.4341 78.7908 50.8067 80.1635 52.5 80.1635Z" fill="#2C830E"/>
</g>
<defs>
<clipPath id="clip0_35_146">
<rect width="105" height="105" fill="white"/>
</clipPath>
</defs>
</svg>
