<svg width="80" height="80" viewBox="0 0 80 80" fill="none" xmlns="http://www.w3.org/2000/svg">
<g clip-path="url(#clip0_35_123)">
<path d="M76.5496 54.3873C78.189 52.2961 78.9753 50.0544 78.8749 47.7457C78.7746 45.2028 77.637 43.212 76.7001 41.9908C77.7875 39.2806 78.2058 35.0146 74.5755 31.7022C71.9155 29.2765 67.3986 28.189 61.1418 28.4902C56.7419 28.6909 53.0615 29.5107 52.9109 29.5441H52.8942C52.0577 29.6947 51.1711 29.8787 50.2677 30.0795C50.2008 29.0088 50.3848 26.3488 52.3588 20.3597C54.701 13.233 54.5671 7.77917 51.9239 4.13216C49.1468 0.301129 44.7135 0 43.4086 0C42.1539 0 40.9996 0.518611 40.1798 1.47219C38.3229 3.63028 38.5404 7.61188 38.7746 9.45211C36.5663 15.3743 30.3764 29.8954 25.1401 33.9272C25.0397 33.9941 24.9561 34.0778 24.8724 34.1614C23.3333 35.7842 22.2961 37.5408 21.5935 39.0799C20.6064 38.5445 19.4856 38.2434 18.2811 38.2434H8.07612C4.22836 38.2434 1.11669 41.3718 1.11669 45.2028V72.3881C1.11669 76.2359 4.24509 79.3475 8.07612 79.3475H18.2811C19.77 79.3475 21.1585 78.8791 22.2961 78.0761L26.2275 78.5445C26.8298 78.6282 37.5366 79.9833 48.5278 79.7658C50.5186 79.9163 52.3923 80 54.1322 80C57.1267 80 59.7365 79.7658 61.9113 79.2974C67.0305 78.21 70.527 76.0351 72.3003 72.8398C73.6554 70.3973 73.6554 67.9716 73.4379 66.4324C76.767 63.4212 77.3526 60.092 77.2355 57.7499C77.1685 56.3948 76.8674 55.2405 76.5496 54.3873ZM8.07612 74.8306C6.72104 74.8306 5.63363 73.7265 5.63363 72.3881V45.1861C5.63363 43.831 6.73777 42.7436 8.07612 42.7436H18.2811C19.6361 42.7436 20.7235 43.8478 20.7235 45.1861V72.3714C20.7235 73.7265 19.6194 74.8139 18.2811 74.8139H8.07612V74.8306ZM72.2668 52.4299C71.5642 53.166 71.4304 54.2869 71.9657 55.1568C71.9657 55.1736 72.6516 56.3446 72.7353 57.9506C72.8524 60.1422 71.7984 62.0828 69.5901 63.739C68.8038 64.3413 68.486 65.3785 68.8206 66.3153C68.8206 66.3321 69.5399 68.5404 68.3689 70.6315C67.248 72.6391 64.7553 74.0778 60.9745 74.8808C57.9465 75.5332 53.831 75.6504 48.7788 75.2488C48.7118 75.2488 48.6282 75.2488 48.5445 75.2488C37.7875 75.4831 26.9134 74.0778 26.7963 74.0611H26.7796L25.0899 73.8603C25.1903 73.3919 25.2405 72.89 25.2405 72.3881V45.1861C25.2405 44.4667 25.1234 43.7641 24.9226 43.1117C25.2238 41.9908 26.0602 39.4981 28.0343 37.3735C35.5458 31.4178 42.89 11.3258 43.2079 10.4559C43.3417 10.1046 43.3752 9.71978 43.3082 9.33501C43.0238 7.46131 43.1242 5.16938 43.5257 4.48348C44.4124 4.50021 46.8047 4.75115 48.2434 6.74195C49.9498 9.10079 49.8829 13.3166 48.0427 18.9042C45.2321 27.4195 44.9979 31.903 47.2229 33.877C48.3271 34.8641 49.7992 34.9143 50.8699 34.5295C51.8904 34.2953 52.8607 34.0945 53.7808 33.944C53.8478 33.9272 53.9314 33.9105 53.9983 33.8938C59.1343 32.7729 68.3354 32.087 71.5307 34.9979C74.2409 37.4739 72.317 40.7528 72.0995 41.1041C71.4806 42.041 71.6646 43.2622 72.501 44.0151C72.5178 44.0318 74.2744 45.688 74.358 47.913C74.4249 49.4019 73.7223 50.9243 72.2668 52.4299Z" fill="#002C6A"/>
</g>
<defs>
<clipPath id="clip0_35_123">
<rect width="80" height="80" fill="white"/>
</clipPath>
</defs>
</svg>
