<svg width="40" height="40" viewBox="0 0 40 40" fill="none" xmlns="http://www.w3.org/2000/svg">
<g clip-path="url(#clip0_1_893)">
<path d="M13.1524 40C12.2237 40 11.4319 39.6755 10.7772 39.0266C10.1224 38.3776 9.79502 37.5975 9.79502 36.6862C9.79502 35.7748 10.1257 34.9979 10.7871 34.3555C11.4485 33.713 12.2435 33.3918 13.1723 33.3918C14.101 33.3918 14.8928 33.7162 15.5475 34.3652C16.2023 35.0142 16.5297 35.7943 16.5297 36.7056C16.5297 37.6169 16.199 38.3938 15.5376 39.0363C14.8762 39.6788 14.0812 40 13.1524 40ZM31.8598 40C30.931 40 30.1393 39.6755 29.4845 39.0266C28.8298 38.3776 28.5024 37.5975 28.5024 36.6862C28.5024 35.7748 28.8331 34.9979 29.4944 34.3555C30.1558 33.713 30.9509 33.3918 31.8796 33.3918C32.8084 33.3918 33.6002 33.7162 34.2549 34.3652C34.9097 35.0142 35.237 35.7943 35.237 36.7056C35.237 37.6169 34.9064 38.3938 34.245 39.0363C33.5836 39.6788 32.7885 40 31.8598 40ZM10.7304 9.71215L15.8749 20.1752H29.3442L35.1903 9.71215H10.7304ZM9.32734 6.95871H36.8774C37.5934 6.95871 38.1382 7.27994 38.5117 7.92241C38.8853 8.56488 38.885 9.20735 38.5108 9.84982L32.1971 21.0013C31.8541 21.5825 31.4089 22.0491 30.8614 22.4009C30.3139 22.7528 29.7147 22.9287 29.0636 22.9287H14.8928L12.2737 27.7013H35.237V30.4547H12.6947C11.3851 30.4547 10.442 30.0264 9.86517 29.1698C9.28836 28.3132 9.29616 27.3495 9.88856 26.2787L12.8817 20.8636L5.77294 6.08679H2.125V3.33334H7.59691L9.32734 6.95871Z" fill="black"/>
</g>
<defs>
<clipPath id="clip0_1_893">
<rect width="40" height="40" fill="white"/>
</clipPath>
</defs>
</svg>
