<svg width="30" height="30" viewBox="0 0 30 30" fill="none" xmlns="http://www.w3.org/2000/svg">
<path d="M15 30L13.4625 28.4857C10.8183 25.8357 8.63225 23.5498 6.90435 21.6278C5.17645 19.7059 3.8 17.9877 2.775 16.4734C1.75 14.9591 1.03125 13.588 0.61875 12.3602C0.20625 11.1323 0 9.89086 0 8.63574C0 6.17585 0.75625 4.1216 2.26875 2.47297C3.78125 0.824325 5.65 0 7.875 0C9.3 0 10.6188 0.368349 11.8313 1.10505C13.0437 1.84175 14.1 2.90587 15 4.29741C16.05 2.82401 17.1625 1.73943 18.3375 1.04366C19.5125 0.347885 20.775 0 22.125 0C24.35 0 26.2188 0.824325 27.7312 2.47297C29.2437 4.1216 30 6.17585 30 8.63574C30 9.89086 29.7938 11.1323 29.3813 12.3602C28.9688 13.588 28.25 14.9591 27.225 16.4734C26.2 17.9877 24.8235 19.7059 23.0956 21.6278C21.3677 23.5498 19.1817 25.8357 16.5375 28.4857L15 30ZM15 26.7667C17.5309 24.2293 19.6136 22.0534 21.2482 20.2388C22.8827 18.4243 24.1812 16.8349 25.1437 15.4707C26.1062 14.1064 26.7812 12.8904 27.1687 11.8226C27.5562 10.7547 27.75 9.69445 27.75 8.64168C27.75 6.8369 27.225 5.35471 26.175 4.19509C25.125 3.03547 23.7778 2.45566 22.1334 2.45566C20.8453 2.45566 19.6531 2.8854 18.5569 3.74488C17.4606 4.60437 16.575 5.81173 15.9 7.36698H14.0625C13.4125 5.83902 12.5394 4.63847 11.4431 3.76535C10.3468 2.89222 9.15466 2.45566 7.86656 2.45566C6.22219 2.45566 4.875 3.03547 3.825 4.19509C2.775 5.35471 2.25 6.83924 2.25 8.64868C2.25 9.70417 2.44375 10.7708 2.83125 11.8486C3.21875 12.9263 3.89375 14.1542 4.85625 15.5321C5.81875 16.91 7.125 18.4993 8.775 20.3001C10.425 22.101 12.5 24.2565 15 26.7667Z" fill="black"/>
</svg>
