<svg width="30" height="31" viewBox="0 0 30 31" fill="none" xmlns="http://www.w3.org/2000/svg">
<path d="M6.8625 23.4708L17.7375 18.1083L23.1 7.23331L12.225 12.5958L6.8625 23.4708ZM15 16.8333C14.575 16.8333 14.2188 16.6896 13.9313 16.4021C13.6438 16.1146 13.5 15.7583 13.5 15.3333C13.5 14.9083 13.6438 14.5521 13.9313 14.2646C14.2188 13.9771 14.575 13.8333 15 13.8333C15.425 13.8333 15.7813 13.9771 16.0688 14.2646C16.3563 14.5521 16.5 14.9083 16.5 15.3333C16.5 15.7583 16.3563 16.1146 16.0688 16.4021C15.7813 16.6896 15.425 16.8333 15 16.8333ZM15 30.3333C12.95 30.3333 11.0125 29.9396 9.1875 29.1521C7.3625 28.3646 5.76875 27.2896 4.40625 25.9271C3.04375 24.5646 1.96875 22.9708 1.18125 21.1458C0.39375 19.3208 0 17.3833 0 15.3333C0 13.2583 0.39375 11.3083 1.18125 9.48331C1.96875 7.65831 3.04375 6.07081 4.40625 4.72081C5.76875 3.37081 7.3625 2.30206 9.1875 1.51456C11.0125 0.727063 12.95 0.333313 15 0.333313C17.075 0.333313 19.025 0.727063 20.85 1.51456C22.675 2.30206 24.2625 3.37081 25.6125 4.72081C26.9625 6.07081 28.0313 7.65831 28.8188 9.48331C29.6063 11.3083 30 13.2583 30 15.3333C30 17.3833 29.6063 19.3208 28.8188 21.1458C28.0313 22.9708 26.9625 24.5646 25.6125 25.9271C24.2625 27.2896 22.675 28.3646 20.85 29.1521C19.025 29.9396 17.075 30.3333 15 30.3333ZM15 28.0833C18.55 28.0833 21.5625 26.8396 24.0375 24.3521C26.5125 21.8646 27.75 18.8583 27.75 15.3333C27.75 11.7833 26.5125 8.77081 24.0375 6.29581C21.5625 3.82081 18.55 2.58331 15 2.58331C11.475 2.58331 8.46875 3.82081 5.98125 6.29581C3.49375 8.77081 2.25 11.7833 2.25 15.3333C2.25 18.8583 3.49375 21.8646 5.98125 24.3521C8.46875 26.8396 11.475 28.0833 15 28.0833Z" fill="black"/>
</svg>
