<svg width="21" height="21" viewBox="0 0 21 21" fill="none" xmlns="http://www.w3.org/2000/svg">
<path d="M12.5573 20.474C12.2448 20.7865 11.8672 20.9427 11.4245 20.9427C10.9818 20.9427 10.6042 20.7865 10.2917 20.474L0.526052 10.7083C0.352441 10.5347 0.235253 10.3524 0.174489 10.1615C0.113725 9.9705 0.0833435 9.77084 0.0833435 9.56251V1.64584C0.0833435 1.19445 0.230913 0.821191 0.526052 0.526052C0.821191 0.230913 1.19445 0.0833435 1.64584 0.0833435H9.56251C9.77084 0.0833435 9.97918 0.113725 10.1875 0.174489C10.3958 0.235253 10.5868 0.352441 10.7604 0.526052L20.474 10.2396C20.8038 10.5695 20.9688 10.9557 20.9688 11.3984C20.9688 11.8412 20.8038 12.2274 20.474 12.5573L12.5573 20.474ZM11.4896 19.4063L19.4063 11.4896L9.56251 1.64584H1.64584V9.56251L11.4896 19.4063ZM4.38022 5.70834C4.7448 5.70834 5.06164 5.57379 5.33074 5.3047C5.59984 5.0356 5.73439 4.71876 5.73439 4.35418C5.73439 3.98959 5.59984 3.67275 5.33074 3.40366C5.06164 3.13456 4.7448 3.00001 4.38022 3.00001C4.01564 3.00001 3.6988 3.13456 3.4297 3.40366C3.1606 3.67275 3.02605 3.98959 3.02605 4.35418C3.02605 4.71876 3.1606 5.0356 3.4297 5.3047C3.6988 5.57379 4.01564 5.70834 4.38022 5.70834Z" fill="white"/>
</svg>
