<svg width="25" height="25" viewBox="0 0 25 25" fill="none" xmlns="http://www.w3.org/2000/svg">
<path d="M8.30728 18.4896H16.6927V16.9271H8.30728V18.4896ZM8.30728 14.0625H16.6927V12.5H8.30728V14.0625ZM5.72916 22.9167C5.31249 22.9167 4.94791 22.7604 4.63541 22.4479C4.32291 22.1354 4.16666 21.7708 4.16666 21.3542V3.64584C4.16666 3.22917 4.32291 2.86459 4.63541 2.55209C4.94791 2.23959 5.31249 2.08334 5.72916 2.08334H15.1302L20.8333 7.78646V21.3542C20.8333 21.7708 20.6771 22.1354 20.3646 22.4479C20.0521 22.7604 19.6875 22.9167 19.2708 22.9167H5.72916ZM14.3489 8.48959V3.64584H5.72916V21.3542H19.2708V8.48959H14.3489Z" fill="white"/>
</svg>
