<svg width="25" height="25" viewBox="0 0 25 25" fill="none" xmlns="http://www.w3.org/2000/svg">
<path d="M12.5 22.8906C10.0694 22.283 8.07291 20.8724 6.51041 18.6589C4.94791 16.4453 4.16666 14.0191 4.16666 11.3802V5.18229L12.5 2.05729L20.8333 5.18229V11.3802C20.8333 14.0191 20.0521 16.4453 18.4896 18.6589C16.9271 20.8724 14.9305 22.283 12.5 22.8906ZM12.5 21.276C14.4965 20.6163 16.1241 19.3707 17.3828 17.5391C18.6415 15.7075 19.2708 13.6545 19.2708 11.3802V6.27604L12.5 3.72396L5.72916 6.27604V11.3802C5.72916 13.6545 6.3585 15.7075 7.61718 17.5391C8.87586 19.3707 10.5035 20.6163 12.5 21.276Z" fill="white"/>
</svg>
