<svg width="25" height="25" viewBox="0 0 25 25" fill="none" xmlns="http://www.w3.org/2000/svg">
<path d="M12.5023 12.2396C13.0042 12.2396 13.4331 12.0609 13.7891 11.7034C14.145 11.346 14.3229 10.9163 14.3229 10.4143C14.3229 9.91242 14.1442 9.4835 13.7867 9.1276C13.4293 8.7717 12.9996 8.59375 12.4977 8.59375C11.9957 8.59375 11.5668 8.77247 11.2109 9.12992C10.855 9.48735 10.6771 9.91704 10.6771 10.419C10.6771 10.9209 10.8558 11.3498 11.2132 11.7057C11.5707 12.0616 12.0004 12.2396 12.5023 12.2396ZM12.5 20.8594C14.809 18.7587 16.5147 16.8533 17.6172 15.1432C18.7196 13.4332 19.2708 11.9271 19.2708 10.625C19.2708 8.58003 18.6172 6.90559 17.3101 5.60169C16.003 4.29778 14.3996 3.64583 12.5 3.64583C10.6004 3.64583 8.99702 4.29778 7.68989 5.60169C6.38273 6.90559 5.72916 8.58003 5.72916 10.625C5.72916 11.9271 6.29339 13.4332 7.42186 15.1432C8.55034 16.8533 10.243 18.7587 12.5 20.8594ZM12.5 22.9167C9.70485 20.5382 7.61718 18.329 6.23697 16.2891C4.85676 14.2491 4.16666 12.3611 4.16666 10.625C4.16666 8.02083 5.00433 5.94618 6.67968 4.40104C8.35502 2.8559 10.2951 2.08333 12.5 2.08333C14.7049 2.08333 16.645 2.8559 18.3203 4.40104C19.9956 5.94618 20.8333 8.02083 20.8333 10.625C20.8333 12.3611 20.1432 14.2491 18.763 16.2891C17.3828 18.329 15.2951 20.5382 12.5 22.9167Z" fill="white"/>
</svg>
