<svg width="30" height="30" viewBox="0 0 30 30" fill="none" xmlns="http://www.w3.org/2000/svg">
<path d="M15 14.4928C12.9375 14.4928 11.25 13.8164 9.9375 12.4638C8.625 11.1111 7.96875 9.37198 7.96875 7.24638C7.96875 5.12077 8.625 3.38164 9.9375 2.02899C11.25 0.676329 12.9375 0 15 0C17.0625 0 18.75 0.676329 20.0625 2.02899C21.375 3.38164 22.0312 5.12077 22.0312 7.24638C22.0312 9.37198 21.375 11.1111 20.0625 12.4638C18.75 13.8164 17.0625 14.4928 15 14.4928ZM0 30V25.4589C0 24.2351 0.296875 23.1884 0.890625 22.3188C1.48438 21.4493 2.25 20.7891 3.1875 20.3382C5.28125 19.372 7.28906 18.6473 9.21094 18.1643C11.1328 17.6812 13.0625 17.4396 15 17.4396C16.9375 17.4396 18.8594 17.6892 20.7656 18.1884C22.6719 18.6876 24.6706 19.4073 26.7619 20.3475C27.7401 20.8025 28.5243 21.4622 29.1146 22.3266C29.7049 23.191 30 24.2351 30 25.4589V30H0ZM2.8125 27.1015H27.1875V25.4589C27.1875 24.9436 27.0391 24.4525 26.7422 23.9855C26.4453 23.5185 26.0781 23.1723 25.6406 22.9469C23.6406 21.9485 21.8125 21.2641 20.1562 20.8937C18.5 20.5234 16.7812 20.3382 15 20.3382C13.2188 20.3382 11.4844 20.5234 9.79688 20.8937C8.10938 21.2641 6.28125 21.9485 4.3125 22.9469C3.875 23.1723 3.51562 23.5185 3.23438 23.9855C2.95312 24.4525 2.8125 24.9436 2.8125 25.4589V27.1015ZM15 11.5942C16.2188 11.5942 17.2266 11.1836 18.0234 10.3623C18.8203 9.54106 19.2188 8.50242 19.2188 7.24638C19.2188 5.99034 18.8203 4.95169 18.0234 4.13043C17.2266 3.30918 16.2188 2.89855 15 2.89855C13.7812 2.89855 12.7734 3.30918 11.9766 4.13043C11.1797 4.95169 10.7812 5.99034 10.7812 7.24638C10.7812 8.50242 11.1797 9.54106 11.9766 10.3623C12.7734 11.1836 13.7812 11.5942 15 11.5942Z" fill="black"/>
</svg>
