<svg width="21" height="21" viewBox="0 0 21 21" fill="none" xmlns="http://www.w3.org/2000/svg">
<path d="M19.3875 20.5969L11.9906 13.2C11.4281 13.6875 10.7723 14.0672 10.023 14.3391C9.2738 14.6109 8.47654 14.7469 7.63125 14.7469C5.60321 14.7469 3.88683 14.0438 2.4821 12.6375C1.07737 11.2313 0.375 9.53438 0.375 7.54688C0.375 5.55938 1.07812 3.8625 2.48438 2.45625C3.89062 1.05 5.59219 0.346878 7.58906 0.346878C9.58594 0.346878 11.2828 1.05 12.6797 2.45625C14.0766 3.8625 14.775 5.56078 14.775 7.5511C14.775 8.35453 14.6437 9.13125 14.3812 9.88125C14.1187 10.6313 13.725 11.3344 13.2 11.9906L20.625 19.3594L19.3875 20.5969ZM7.60312 13.0594C9.12656 13.0594 10.4215 12.5203 11.4879 11.4422C12.5543 10.3641 13.0875 9.06563 13.0875 7.54688C13.0875 6.02813 12.5543 4.72969 11.4879 3.65157C10.4215 2.57344 9.12656 2.03438 7.60312 2.03438C6.06407 2.03438 4.75586 2.57344 3.67851 3.65157C2.60117 4.72969 2.0625 6.02813 2.0625 7.54688C2.0625 9.06563 2.60117 10.3641 3.67851 11.4422C4.75586 12.5203 6.06407 13.0594 7.60312 13.0594Z" fill="white"/>
</svg>
