<svg width="25" height="25" viewBox="0 0 25 25" fill="none" xmlns="http://www.w3.org/2000/svg">
<path d="M10.1042 22.9167L9.58334 19.6354C9.25348 19.5139 8.90626 19.349 8.54168 19.1406C8.17709 18.9323 7.85591 18.7153 7.57814 18.4896L4.50522 19.8958L2.08334 15.625L4.89584 13.5677C4.86112 13.4115 4.83942 13.2335 4.83074 13.0339C4.82206 12.8342 4.81772 12.6563 4.81772 12.5C4.81772 12.3438 4.82206 12.1658 4.83074 11.9661C4.83942 11.7665 4.86112 11.5885 4.89584 11.4323L2.08334 9.375L4.50522 5.10417L7.57814 6.51042C7.85591 6.28473 8.17709 6.06771 8.54168 5.85938C8.90626 5.65104 9.25348 5.49479 9.58334 5.39063L10.1042 2.08334H14.8958L15.4167 5.36459C15.7465 5.48611 16.0981 5.6467 16.4714 5.84636C16.8446 6.04601 17.1615 6.26736 17.4219 6.51042L20.4948 5.10417L22.9167 9.375L20.1042 11.3802C20.1389 11.5538 20.1606 11.7405 20.1693 11.9401C20.178 12.1398 20.1823 12.3264 20.1823 12.5C20.1823 12.6736 20.178 12.8559 20.1693 13.0469C20.1606 13.2379 20.1389 13.4201 20.1042 13.5938L22.9167 15.625L20.4948 19.8958L17.4219 18.4896C17.1441 18.7153 16.8273 18.9366 16.4714 19.1536C16.1155 19.3707 15.7639 19.5313 15.4167 19.6354L14.8958 22.9167H10.1042ZM12.5 15.8854C13.4375 15.8854 14.2361 15.5556 14.8958 14.8958C15.5556 14.2361 15.8854 13.4375 15.8854 12.5C15.8854 11.5625 15.5556 10.7639 14.8958 10.1042C14.2361 9.44445 13.4375 9.11459 12.5 9.11459C11.5625 9.11459 10.7639 9.44445 10.1042 10.1042C9.44446 10.7639 9.11459 11.5625 9.11459 12.5C9.11459 13.4375 9.44446 14.2361 10.1042 14.8958C10.7639 15.5556 11.5625 15.8854 12.5 15.8854ZM12.5 14.3229C11.9965 14.3229 11.5669 14.145 11.2109 13.7891C10.855 13.4332 10.6771 13.0035 10.6771 12.5C10.6771 11.9965 10.855 11.5668 11.2109 11.2109C11.5669 10.855 11.9965 10.6771 12.5 10.6771C13.0035 10.6771 13.4332 10.855 13.7891 11.2109C14.145 11.5668 14.3229 11.9965 14.3229 12.5C14.3229 13.0035 14.145 13.4332 13.7891 13.7891C13.4332 14.145 13.0035 14.3229 12.5 14.3229ZM11.3542 21.3542H13.6458L14.0104 18.4375C14.5833 18.2986 15.1259 18.0816 15.638 17.7865C16.1502 17.4913 16.6146 17.1354 17.0313 16.7188L19.7917 17.9167L20.8333 16.0417L18.3854 14.2448C18.4549 13.9497 18.5113 13.6589 18.5547 13.3724C18.5981 13.0859 18.6198 12.7951 18.6198 12.5C18.6198 12.2049 18.6024 11.9141 18.5677 11.6276C18.533 11.3411 18.4722 11.0504 18.3854 10.7552L20.8333 8.95834L19.7917 7.08334L17.0313 8.28125C16.632 7.82986 16.1806 7.45226 15.6771 7.14844C15.1736 6.84462 14.6181 6.64931 14.0104 6.5625L13.6458 3.64584H11.3542L10.9896 6.5625C10.3993 6.68403 9.8481 6.89236 9.33595 7.1875C8.8238 7.48264 8.36807 7.84723 7.96876 8.28125L5.20834 7.08334L4.16668 8.95834L6.61459 10.7552C6.54515 11.0504 6.48873 11.3411 6.44532 11.6276C6.40192 11.9141 6.38022 12.2049 6.38022 12.5C6.38022 12.7951 6.40192 13.0859 6.44532 13.3724C6.48873 13.6589 6.54515 13.9497 6.61459 14.2448L4.16668 16.0417L5.20834 17.9167L7.96876 16.7188C8.38543 17.1354 8.84984 17.4913 9.36199 17.7865C9.87414 18.0816 10.4167 18.2986 10.9896 18.4375L11.3542 21.3542Z" fill="white"/>
</svg>
